<?xml version="1.0" encoding="UTF-8"?>
<svg width="145px" height="28px" viewBox="0 0 145 28" version="1.1" xmlns="http://www.w3.org/2000/svg" xmlns:xlink="http://www.w3.org/1999/xlink">
    <!-- Generator: Sketch 53.2 (72643) - https://sketchapp.com -->
    <title>Logo/Colored/Black</title>
    <desc>Created with Sketch.</desc>
    <g id="Symbols" stroke="none" stroke-width="1" fill="none" fill-rule="evenodd">
        <g id="Chassi/Header/Home" transform="translate(-22.000000, -18.000000)">
            <g id="Logo/Colorido/Texto-preto" transform="translate(22.000000, 18.000000)">
                <path d="M138.731037,11.4022892 C138.731037,10.7875815 139.323984,10.4688123 140.053299,10.4688123 C140.687674,10.4688123 141.203805,10.7152123 141.566737,11.1459815 C141.69879,11.30192 141.919743,11.3475815 142.099698,11.25152 L143.841856,10.3210585 C144.079207,10.1944123 144.144371,9.88296615 143.979088,9.67145846 C143.052987,8.48598154 141.650025,7.85145846 140.053299,7.85145846 C137.705249,7.85145846 135.720561,9.14893538 135.720561,11.4703508 C135.720561,15.4769354 141.604281,14.5662892 141.604281,16.2281969 C141.604281,16.8877046 140.966022,17.2064738 140.03129,17.2064738 C139.119862,17.2064738 138.447079,16.8553969 138.049192,16.2385354 C137.927496,16.0502892 137.68324,15.9830892 137.485159,16.0890585 L135.684743,17.0501046 C135.46379,17.1685662 135.390427,17.4511508 135.522912,17.6648123 C136.415784,19.0936738 137.981871,19.86992 140.03129,19.86992 C142.470829,19.86992 144.614757,18.6865969 144.614757,16.2281969 C144.614757,12.0393969 138.731037,13.0865969 138.731037,11.4022892" id="Fill-11" fill="#151918"></path>
                <path d="M130.237446,19.49416 L128.942804,19.49416 C128.466375,19.49416 128.079708,19.1081908 128.079708,18.6326215 L128.079708,14.0113292 C128.079708,10.7891754 130.696613,8.17656 133.925884,8.17656 L133.927179,8.17656 C134.401018,8.17656 134.785958,8.56037538 134.785958,9.03379077 L134.785958,10.3347138 C134.785958,10.8081292 134.401018,11.1919446 133.927179,11.1919446 L133.925452,11.1919446 C132.365408,11.1919446 131.100542,12.4545292 131.100542,14.0113292 L131.100542,18.6326215 C131.100542,19.1081908 130.713875,19.49416 130.237446,19.49416" id="Fill-16" fill="#151918"></path>
                <path d="M120.471179,17.0020738 C118.737652,17.0020738 117.392949,15.7045969 117.392949,13.8609046 C117.392949,12.0172123 118.737652,10.7197354 120.471179,10.7197354 C122.226714,10.7197354 123.572711,12.0172123 123.572711,13.8609046 C123.572711,15.7045969 122.226714,17.0020738 120.471179,17.0020738 M120.471179,7.85167385 C117.118485,7.85167385 114.451521,10.4690277 114.451521,13.8609046 C114.451521,17.2523508 117.118485,19.8701354 120.471179,19.8701354 C123.823872,19.8701354 126.51414,17.2523508 126.51414,13.8609046 C126.51414,10.4690277 123.823872,7.85167385 120.471179,7.85167385" id="Fill-5" fill="#151918"></path>
                <path d="M110.008652,4.49524923 L108.793414,4.49524923 C108.316554,4.49524923 107.930318,4.88121846 107.930318,5.35678769 L107.930318,8.17014154 L107.930318,10.9925415 L107.930318,15.7271262 C107.930318,18.5895877 109.136494,19.8323569 112.638935,19.6217108 C113.092491,19.5941415 113.448949,19.2133415 113.448949,18.7597415 L113.448949,17.7801723 C113.448949,17.3011569 113.054083,16.9169108 112.572908,16.9203569 C111.455631,16.9268185 110.871747,16.7226338 110.871747,15.7271262 L110.871747,10.9925415 L112.585854,10.9925415 C113.062283,10.9925415 113.448949,10.6070031 113.448949,10.1310031 L113.448949,9.03168 C113.448949,8.55611077 113.062283,8.17014154 112.585854,8.17014154 L110.871747,8.17014154 L110.871747,5.35678769 C110.871747,4.88121846 110.48508,4.49524923 110.008652,4.49524923" id="Fill-1" fill="#151918"></path>
                <path d="M100.260077,17.0020738 C98.5265506,17.0020738 97.1818482,15.7045969 97.1818482,13.8609046 C97.1818482,12.0172123 98.5265506,10.7197354 100.260077,10.7197354 C102.015613,10.7197354 103.36161,12.0172123 103.36161,13.8609046 C103.36161,15.7045969 102.015613,17.0020738 100.260077,17.0020738 M100.260077,7.85167385 C96.9073839,7.85167385 94.2404196,10.4690277 94.2404196,13.8609046 C94.2404196,17.2523508 96.9073839,19.8701354 100.260077,19.8701354 C103.612771,19.8701354 106.303039,17.2523508 106.303039,13.8609046 C106.303039,10.4690277 103.612771,7.85167385 100.260077,7.85167385" id="Fill-3" fill="#151918"></path>
                <path d="M88.382808,7.86735385 C86.9013051,7.75018462 85.5471086,8.29467692 84.5731057,9.2316 C83.5995342,8.29467692 82.2436116,7.75018462 80.7638348,7.86735385 C78.178433,8.07153846 76.2377634,10.3322154 76.2377634,12.9207077 L76.2377634,18.8347385 C76.2377634,19.3111692 76.6248616,19.6962769 77.1008586,19.6962769 L78.3955015,19.6962769 C78.8727932,19.6962769 79.2585967,19.3111692 79.2585967,18.8347385 L79.2585967,12.8496308 C79.2585967,11.8592923 79.9827336,10.9727692 80.9705461,10.8762769 C82.1042217,10.766 83.062689,11.6559692 83.062689,12.7656308 L83.062689,18.8347385 C83.062689,19.3111692 83.4484926,19.6962769 83.9257842,19.6962769 L85.2204271,19.6962769 C85.6964241,19.6962769 86.0835223,19.3111692 86.0835223,18.8347385 L86.0835223,12.8500615 C86.0835223,11.8592923 86.8076592,10.9723385 87.7954717,10.8762769 C88.9291473,10.766 89.8863199,11.6559692 89.8863199,12.7656308 L89.8863199,18.8347385 C89.8863199,19.3111692 90.2734182,19.6962769 90.7494152,19.6962769 L92.044058,19.6962769 C92.5213497,19.6962769 92.9071533,19.3111692 92.9071533,18.8347385 L92.9071533,12.9207077 C92.9071533,10.3322154 90.9677783,8.07153846 88.382808,7.86735385" id="Fill-9" fill="#151918"></path>
                <path d="M68.9406384,16.9154031 C67.210564,16.9154031 65.8675878,15.6222338 65.8628408,13.78328 L65.8628408,13.7647569 C65.8675878,11.9262338 67.210564,10.6330646 68.9406384,10.6330646 C70.6966057,10.6330646 72.0421711,11.9305415 72.0421711,13.7742338 C72.0421711,15.6179262 70.6966057,16.9154031 68.9406384,16.9154031 M68.9406384,7.76500308 C67.8104152,7.76500308 66.7617545,8.06826462 65.8628408,8.59251077 L65.8628408,4.47909538 C65.8628408,4.00352615 65.4766057,3.61755692 64.9997455,3.61755692 L63.7840759,3.61755692 C63.3072158,3.61755692 62.9209807,4.00352615 62.9209807,4.47909538 L62.9209807,13.8134338 L62.9231384,13.8134338 C62.9438527,17.1854954 65.602186,19.7834646 68.9406384,19.7834646 C72.2933318,19.7834646 74.9835997,17.16568 74.9835997,13.7742338 C74.9835997,10.3823569 72.2933318,7.76500308 68.9406384,7.76500308" id="Fill-14" fill="#151918"></path>
                <path d="M55.538625,10.5462215 C56.7672411,10.5462215 57.7925982,11.1824677 58.2988036,12.1952062 L52.8004554,12.1952062 C53.3053661,11.1824677 54.3259762,10.5462215 55.538625,10.5462215 L55.538625,10.5462215 Z M58.6733869,15.8774215 C58.3549048,15.7076985 57.9531339,15.7391446 57.6929107,15.9889908 C57.1435506,16.5179754 56.3922262,16.82856 55.538625,16.82856 C54.3018095,16.82856 53.2648006,16.1664677 52.7719732,15.1175446 C52.6351726,14.8267754 52.8375685,14.4916369 53.1590714,14.4916369 L60.7754554,14.4916369 C61.2182232,14.4916369 61.5811548,14.12936 61.5815863,13.6873908 C61.5815863,10.2959446 58.8913185,7.67816 55.538625,7.67816 C52.1863631,7.67816 49.5189673,10.2959446 49.5189673,13.6873908 C49.5189673,17.0796985 52.1863631,19.6970523 55.538625,19.6970523 C57.306244,19.6970523 58.8865714,18.9668985 59.9874494,17.78056 C60.3659167,17.3730523 60.2373155,16.7126831 59.7462143,16.4512062 L58.6733869,15.8774215 Z" id="Fill-20" fill="#151918"></path>
                <path d="M45.1968452,14.7830092 C45.1968452,15.8926708 44.2388095,16.78264 43.1051339,16.6723631 C42.1173214,16.5758708 41.3936161,15.6893477 41.3936161,14.6981477 L41.3936161,8.71304 C41.3936161,8.23747077 41.0069494,7.85150154 40.5305208,7.85150154 L39.235878,7.85150154 C38.7590179,7.85150154 38.3727827,8.23747077 38.3727827,8.71304 L38.3727827,14.6981477 C38.3727827,15.6893477 37.6490774,16.5758708 36.6608333,16.6723631 C35.5271577,16.78264 34.569122,15.8926708 34.569122,14.7830092 L34.569122,8.71304 C34.569122,8.23747077 34.1828869,7.85150154 33.7060268,7.85150154 L32.4113839,7.85150154 C31.9349554,7.85150154 31.5482887,8.23747077 31.5482887,8.71304 L31.5482887,14.6279323 C31.5482887,17.2159938 33.4885268,19.4766708 36.073497,19.6812862 C37.5541369,19.7984554 38.909628,19.2539631 39.8831994,18.31704 C40.8563393,19.2539631 42.2118304,19.7984554 43.6929018,19.6812862 C46.2774405,19.4766708 48.2176786,17.2159938 48.2176786,14.6279323 L48.2176786,8.71304 C48.2176786,8.23747077 47.8310119,7.85150154 47.3545833,7.85150154 L46.0599405,7.85150154 C45.5835119,7.85150154 45.1968452,8.23747077 45.1968452,8.71304 L45.1968452,14.7830092 Z" id="Fill-7" fill="#151918"></path>
                <path d="M13.8911726,0 C6.2195506,0 8.63095238e-05,6.20824615 8.63095238e-05,13.8660308 C8.63095238e-05,21.5238154 6.2195506,27.7316308 13.8911726,27.7316308 C21.5627946,27.7316308 27.7818274,21.5238154 27.7818274,13.8660308 C27.7818274,6.20824615 21.5627946,0 13.8911726,0 L13.8911726,0 Z" id="Path" fill="#F51344"></path>
                <path d="M21.6564405,18.4761231 C21.6564405,19.1313231 21.1079435,19.6572923 20.4446548,19.6224 C19.8227946,19.5896615 19.3567232,19.0326769 19.3567232,18.4110769 L19.3567232,15.8755692 C19.3567232,15.3995692 18.9700565,15.0140308 18.493628,15.0140308 L15.9043423,15.0140308 C15.4274821,15.0140308 15.041247,15.3995692 15.041247,15.8755692 L15.041247,19.3376615 C15.041247,19.9928615 14.4923185,20.5188308 13.8290298,20.4839385 C13.2076012,20.4512 12.7415298,19.8942154 12.7415298,19.2726154 L12.7415298,15.8755692 C12.7415298,15.3995692 12.3544315,15.0140308 11.8784345,15.0140308 L9.28914881,15.0140308 C8.81185714,15.0140308 8.42605357,15.3995692 8.42605357,15.8755692 L8.42605357,18.4761231 C8.42605357,19.1313231 7.877125,19.6572923 7.21383631,19.6224 C6.59197619,19.5896615 6.12590476,19.0326769 6.12590476,18.4110769 L6.12590476,9.25593846 C6.12590476,8.6016 6.67440179,8.07476923 7.33725893,8.10966154 C7.9595506,8.14196923 8.42605357,8.69938462 8.42605357,9.32098462 L8.42605357,11.8564923 C8.42605357,12.3324923 8.81185714,12.7180308 9.28914881,12.7180308 L11.8784345,12.7180308 C12.3544315,12.7180308 12.7415298,12.3324923 12.7415298,11.8564923 L12.7415298,8.3944 C12.7415298,7.74006154 13.2895952,7.21323077 13.9528839,7.24812308 C14.574744,7.28043077 15.041247,7.83784615 15.041247,8.45944615 L15.041247,11.8564923 C15.041247,12.3324923 15.4274821,12.7180308 15.9043423,12.7180308 L18.493628,12.7180308 C18.9700565,12.7180308 19.3567232,12.3324923 19.3567232,11.8564923 L19.3567232,9.32098462 C19.3567232,8.69938462 19.8227946,8.14196923 20.4446548,8.10966154 C21.1079435,8.07476923 21.6564405,8.6016 21.6564405,9.25593846 L21.6564405,18.4761231 Z" id="Path" fill="#FFFFFF"></path>
            </g>
        </g>
    </g>
</svg>